<!DOCTYPE svg PUBLIC "-//W3C//DTD SVG 20010904//EN" "http://www.w3.org/TR/2001/REC-SVG-20010904/DTD/svg10.dtd">
<svg version="1.0" xmlns="http://www.w3.org/2000/svg" width="390px" height="390px" viewBox="0 0 3900 3900" preserveAspectRatio="xMidYMid meet">
<g id="layer101" fill="#fabf13" stroke="none">
 <path d="M1634 3870 c-560 -90 -1039 -406 -1349 -890 -133 -207 -238 -486 -274 -727 -14 -93 -14 -533 0 -626 51 -343 224 -709 460 -977 300 -339 726 -574 1156 -639 93 -14 533 -14 626 0 670 101 1267 586 1513 1231 143 375 165 825 59 1212 -89 330 -259 621 -504 867 -300 300 -663 484 -1084 550 -161 25 -444 25 -603 -1z"/>
 </g>
<g id="layer102" fill="#f6d84e" stroke="none">
 <path d="M1634 3870 c-560 -90 -1039 -406 -1349 -890 -133 -207 -238 -486 -274 -727 -14 -93 -14 -533 0 -626 51 -343 224 -709 460 -977 300 -339 726 -574 1156 -639 93 -14 533 -14 626 0 670 101 1267 586 1513 1231 143 375 165 825 59 1212 -89 330 -259 621 -504 867 -300 300 -663 484 -1084 550 -161 25 -444 25 -603 -1z m1346 -967 c88 -25 249 -105 307 -151 80 -64 195 -189 222 -240 8 -15 17 -29 22 -32 15 -10 79 -155 100 -225 36 -124 59 -398 35 -422 -3 -3 -6 -17 -6 -29 0 -31 -26 -131 -50 -189 -4 -11 -13 -35 -20 -52 -7 -18 -15 -33 -19 -33 -4 0 -13 -16 -20 -35 -7 -19 -17 -35 -22 -35 -5 0 -9 -6 -9 -13 0 -24 -112 -167 -132 -167 -4 0 -74 68 -157 152 l-149 151 38 46 c82 99 120 206 120 341 0 107 -15 166 -61 249 -43 76 -75 113 -140 162 -100 75 -199 109 -319 109 -121 0 -243 -43 -328 -116 l-42 -36 -118 123 c-64 67 -132 136 -149 152 -18 17 -33 36 -33 43 0 23 163 143 255 188 93 45 223 83 310 90 111 8 279 -6 365 -31z m-2329 -253 c19 -19 85 -82 146 -138 l110 -104 -66 -68 c-40 -41 -80 -94 -100 -134 -54 -108 -76 -261 -50 -345 17 -52 66 -168 78 -183 44 -56 92 -106 123 -128 l37 -27 -154 -154 c-85 -84 -163 -157 -175 -161 -12 -4 -19 -4 -16 1 3 4 -22 35 -55 67 -149 147 -244 346 -274 574 -13 99 -13 235 -1 248 3 3 6 19 6 36 0 17 9 56 20 86 11 30 20 64 20 75 0 11 14 44 30 74 17 30 30 58 30 62 0 20 105 161 162 217 68 68 61 68 129 2z"/>
 </g>
<g id="layer103" fill="#fecf23" stroke="none">
 <path d="M1634 3870 c-560 -90 -1039 -406 -1349 -890 -133 -207 -238 -486 -274 -727 -14 -93 -14 -533 0 -626 51 -343 224 -709 460 -977 300 -339 726 -574 1156 -639 93 -14 533 -14 626 0 670 101 1267 586 1513 1231 143 375 165 825 59 1212 -89 330 -259 621 -504 867 -300 300 -663 484 -1084 550 -161 25 -444 25 -603 -1z m-170 -954 c141 -42 312 -135 301 -163 -3 -8 -37 -112 -76 -232 -40 -119 -74 -220 -76 -224 -3 -4 -31 16 -62 46 -93 86 -220 136 -346 137 -73 0 -192 -31 -246 -66 -22 -13 -44 -22 -48 -19 -5 2 -28 -14 -52 -36 -24 -22 -38 -38 -32 -34 9 4 11 1 7 -9 -3 -9 -9 -14 -14 -11 -17 11 -83 -86 -74 -110 4 -10 2 -15 -7 -13 -9 2 -13 -5 -12 -20 2 -13 -1 -21 -6 -17 -14 8 -23 -29 -15 -61 4 -17 3 -25 -3 -21 -13 8 -23 -39 -23 -113 0 -64 7 -93 21 -84 5 3 6 -8 3 -23 -3 -19 3 -39 18 -63 12 -19 22 -39 23 -45 1 -23 17 -55 26 -55 6 0 7 5 4 10 -3 6 -4 10 -2 10 2 0 16 -19 31 -42 l27 -43 -26 30 c-18 20 -23 23 -16 9 14 -29 120 -125 135 -122 6 1 29 -8 52 -19 181 -95 419 -60 574 84 53 48 62 53 66 37 3 -10 38 -118 79 -239 l73 -220 -29 -26 c-36 -31 -162 -94 -241 -120 -83 -26 -221 -49 -298 -49 -142 0 -323 47 -449 116 -78 43 -173 110 -170 120 3 11 -103 114 -112 108 -4 -2 -13 5 -19 17 -10 17 -9 20 2 14 7 -4 -2 6 -20 22 -18 15 -32 32 -32 37 0 6 7 1 16 -10 17 -21 10 -7 -25 49 -12 20 -25 37 -28 37 -2 0 -1 -4 2 -10 3 -5 4 -10 1 -10 -7 0 -36 56 -36 67 1 4 7 -3 15 -17 24 -41 17 -11 -7 34 -13 22 -29 45 -35 49 -7 4 -13 13 -13 20 0 8 4 6 11 -3 9 -12 10 -12 5 3 -3 11 -9 30 -12 44 -5 19 -9 22 -16 11 -7 -9 -8 -6 -4 11 3 13 2 38 -1 55 -6 26 -7 28 -15 11 -6 -14 -7 -10 -3 14 7 48 -6 166 -16 149 -5 -8 -9 10 -9 45 0 39 4 56 11 51 7 -4 10 7 8 33 -2 21 1 44 5 51 4 8 5 29 2 48 -4 19 -3 34 2 34 12 0 41 87 44 131 1 19 10 42 20 52 12 12 17 26 13 40 -5 16 -4 18 3 8 13 -18 25 3 17 28 -3 11 0 23 6 27 8 4 9 3 5 -4 -4 -7 -5 -12 -2 -12 3 0 21 24 40 54 19 30 52 74 73 98 21 24 27 34 14 23 l-24 -20 14 23 c8 12 19 22 26 22 7 0 27 14 45 31 18 18 24 25 13 18 -47 -33 9 23 69 67 105 79 268 150 398 173 29 6 118 8 198 6 120 -3 160 -8 234 -29z m1444 13 c-14 -9 48 -20 69 -12 10 4 14 2 10 -4 -4 -6 12 -15 36 -23 23 -7 59 -21 81 -32 21 -11 35 -14 31 -7 -5 7 -3 10 4 8 7 -3 11 -8 9 -12 -5 -11 39 -37 55 -31 8 3 18 0 23 -7 4 -8 3 -10 -4 -5 -7 4 -12 5 -12 2 0 -3 10 -10 21 -17 17 -9 20 -8 14 3 -5 7 7 -4 26 -25 19 -21 41 -39 49 -40 23 -4 41 -17 35 -27 -3 -5 0 -12 6 -16 8 -4 9 -3 5 4 -5 8 -2 10 8 6 9 -3 14 -10 11 -14 -6 -10 40 -67 102 -126 24 -22 43 -45 43 -49 0 -5 -7 0 -15 11 -14 18 -14 17 -4 -8 7 -16 15 -28 19 -28 12 0 87 -172 105 -243 13 -47 21 -64 27 -55 6 8 8 1 4 -21 -8 -47 5 -172 15 -146 5 13 8 -4 8 -45 1 -48 -2 -61 -10 -50 -8 11 -9 -3 -4 -50 4 -49 3 -61 -6 -50 -8 11 -9 5 -5 -28 4 -25 3 -41 -3 -38 -12 8 -23 -41 -15 -66 4 -13 2 -18 -4 -14 -13 8 -25 -25 -17 -47 4 -8 1 -18 -6 -23 -8 -5 -10 -3 -4 6 5 8 4 11 -2 7 -6 -4 -13 -20 -16 -36 -3 -16 -13 -36 -22 -45 -10 -9 -14 -24 -10 -35 3 -11 1 -22 -4 -26 -7 -4 -9 1 -5 12 4 15 3 14 -7 -2 -7 -11 -15 -22 -19 -25 -3 -3 -10 -14 -13 -25 -7 -20 -7 -20 8 -1 8 11 15 16 15 10 0 -5 -10 -20 -23 -34 -12 -14 -20 -21 -17 -15 3 6 -4 0 -15 -14 -60 -75 -93 -105 -107 -96 -8 6 -6 3 4 -6 17 -16 15 -19 -35 -62 -270 -230 -624 -295 -961 -175 -134 47 -256 129 -368 246 -251 265 -333 651 -214 1006 15 43 36 96 48 119 44 88 187 278 188 250 0 -6 12 1 28 15 15 15 47 45 72 66 25 21 36 33 25 25 -18 -13 -19 -13 -6 4 7 9 20 16 27 15 7 -2 20 6 29 17 9 11 13 14 10 7 -6 -11 -3 -12 14 -3 11 7 21 14 21 17 0 3 -4 2 -10 -1 -5 -3 -10 -4 -10 -1 0 12 100 56 113 50 8 -3 17 2 21 11 4 11 12 15 22 11 9 -3 27 -3 41 0 19 5 22 9 11 16 -9 7 -4 8 15 4 30 -7 84 3 69 13 -6 3 79 6 188 6 109 0 194 -3 188 -6z m-2013 -1368 c-3 -3 -18 8 -33 23 l-27 29 32 -23 c18 -13 30 -26 28 -29z"/>
 <path d="M2638 2482 c8 -5 -4 -9 -31 -9 -23 0 -52 -5 -62 -12 -20 -12 -20 -12 0 -6 11 3 16 3 12 -2 -5 -4 -21 -8 -37 -9 -34 -2 -115 -51 -151 -91 l-24 -28 30 25 c16 14 4 -3 -27 -37 -149 -164 -178 -371 -81 -571 142 -291 518 -373 775 -169 28 22 47 33 43 26 -5 -8 3 -3 18 10 14 13 24 28 21 35 -2 6 6 22 17 36 l21 25 -17 -30 c-16 -27 -16 -29 -1 -14 10 9 19 28 20 43 2 15 13 36 24 46 30 28 50 113 50 215 1 109 -6 154 -20 134 -6 -10 -7 -5 -4 16 3 17 1 37 -5 45 -9 13 -10 12 -5 -3 4 -11 2 -16 -5 -12 -6 4 -8 14 -4 22 10 28 -70 148 -130 194 -26 20 -28 21 -16 4 7 -11 1 -6 -14 10 -16 17 -34 29 -41 27 -7 -1 -16 3 -20 9 -5 8 -3 9 6 4 9 -5 11 -4 6 4 -4 6 -16 9 -26 6 -10 -3 -22 0 -26 6 -5 8 -3 10 7 4 10 -5 11 -5 4 3 -18 18 -105 42 -133 36 -21 -4 -24 -3 -12 5 11 8 -10 11 -80 11 -53 0 -89 -4 -82 -8z"/>
 </g>
<g id="layer104" fill="#fffffd" stroke="none">
 <path d="M1634 3870 c-560 -90 -1039 -406 -1349 -890 -133 -207 -238 -486 -274 -727 -14 -93 -14 -533 0 -626 51 -343 224 -709 460 -977 300 -339 726 -574 1156 -639 93 -14 533 -14 626 0 670 101 1267 586 1513 1231 143 375 165 825 59 1212 -89 330 -259 621 -504 867 -300 300 -663 484 -1084 550 -161 25 -444 25 -603 -1z m-170 -954 c141 -42 312 -135 301 -163 -3 -8 -37 -112 -76 -232 -40 -119 -74 -220 -76 -224 -3 -4 -31 16 -62 46 -297 274 -770 111 -847 -292 -33 -171 36 -353 179 -473 71 -59 114 -82 194 -102 166 -43 345 2 473 121 53 48 62 53 66 37 3 -10 38 -118 79 -239 l73 -220 -29 -26 c-36 -31 -162 -94 -241 -120 -302 -96 -604 -46 -874 147 -137 98 -274 281 -327 437 -42 123 -46 139 -58 250 -27 233 34 476 167 667 123 177 295 307 498 375 112 38 167 44 326 40 120 -3 160 -8 234 -29z m1535 -5 c142 -47 254 -108 340 -186 58 -52 134 -134 169 -183 105 -147 181 -384 182 -567 0 -92 -26 -245 -58 -339 -139 -404 -544 -679 -962 -652 -262 17 -471 114 -652 304 -251 265 -333 651 -214 1006 113 335 414 592 761 649 17 3 100 4 185 2 142 -3 163 -6 249 -34z"/>
 <path d="M2605 2465 c-273 -75 -438 -333 -384 -597 17 -85 76 -193 138 -256 158 -160 395 -198 599 -95 113 56 223 196 258 327 50 186 -29 409 -187 528 -122 93 -290 129 -424 93z"/>
 </g>

</svg>