<?xml version="1.0" encoding="utf-8"?>
<!-- Generator: Adobe Illustrator 17.1.0, SVG Export Plug-In . SVG Version: 6.00 Build 0)  -->
<!DOCTYPE svg PUBLIC "-//W3C//DTD SVG 1.1//EN" "http://www.w3.org/Graphics/SVG/1.1/DTD/svg11.dtd">
<svg version="1.1" id="paper-pencil" xmlns="http://www.w3.org/2000/svg" xmlns:xlink="http://www.w3.org/1999/xlink" x="0px"
	 y="0px" viewBox="0 0 1009.9766 1009.9527" enable-background="new 0 0 1009.9766 1009.9527" xml:space="preserve">
<g id="paper-pencil-label">
	<path fill="#F6AB38" d="M504.9644,0C226.0957,0,0,226.1314,0,504.9878c0,278.9043,226.0957,504.9649,504.9644,504.9649
		c278.8921,0,505.0122-226.0606,505.0122-504.9649C1009.9766,226.1314,783.8565,0,504.9644,0z"/>
</g>
<g id="paper-pencil-paper-pencil">
	<polygon fill="#FFFFFF" points="571.419,601.8101 649.2197,658.0152 741.4649,530.3257 663.6524,474.1206 	"/>
	<polygon fill="#FFFFFF" points="566.7471,608.2808 570.1201,686.6304 644.5479,664.4859 	"/>
	<path fill="#FFFFFF" d="M754.7891,484.5611l-51.8672-37.4707c-7.1631-5.1719-17.3164-3.337-22.6914,4.1001
		c-0.2988,0.4052-11.2988,15.8032-11.5371,16.2202l77.5742,56.0381c0.3096-0.3692,11.4648-15.6602,11.7627-16.0528
		C763.4053,499.9585,761.9512,489.7212,754.7891,484.5611z"/>
	<path fill="#FFFFFF" d="M613.6914,363.2241H341.3428c-8.6289,0-15.625,6.9957-15.625,15.6363
		c0,8.6167,6.9961,15.6128,15.625,15.6128h272.3486c8.6289,0,15.6367-6.9961,15.6367-15.6128
		C629.3281,370.2198,622.3203,363.2241,613.6914,363.2241z"/>
	<path fill="#FFFFFF" d="M629.3281,445.0767c0-8.6289-7.0078-15.6245-15.6367-15.6245H341.3428
		c-8.6289,0-15.625,6.9956-15.625,15.6245c0,8.6284,6.9961,15.624,15.625,15.624h272.3486
		C622.3203,460.7007,629.3281,453.7051,629.3281,445.0767z"/>
	<path fill="#FFFFFF" d="M542.2559,495.6802H341.3428c-8.6289,0-15.625,6.9961-15.625,15.624c0,8.6289,6.9961,15.625,15.625,15.625
		h200.9131c8.6288,0,15.6367-6.9961,15.6367-15.625C557.8926,502.6763,550.8848,495.6802,542.2559,495.6802z"/>
	<path fill="#FFFFFF" d="M542.2559,561.9077H341.3428c-8.6289,0-15.625,6.9961-15.625,15.625
		c0,8.6288,6.9961,15.6368,15.625,15.6368h200.9131c8.6288,0,15.6367-7.0079,15.6367-15.6368
		C557.8926,568.9038,550.8848,561.9077,542.2559,561.9077z"/>
	<path fill="#FFFFFF" d="M675.0938,682.4468c-0.0479,28.1387-23.2168,51.3066-51.3428,51.3545H518.8252v-22.335
		c-0.0596-45.5263-37.0654-82.5312-82.5918-82.5908H279.9531V327.5059c0.0596-28.1382,23.2164-51.3071,51.3545-51.3428H623.751
		c28.126,0.0357,51.2949,23.2046,51.3428,51.3428v115.9018c4.9453-5.3154,11.7861-8.1875,18.6875-8.1757
		c4.29-0.0118,8.6523,1.1923,12.5605,3.5161V327.5059c-0.0469-45.5386-37.0644-82.5562-82.5908-82.6035H331.3076
		c-45.5385,0.0473-82.5556,37.0649-82.6035,82.6035v317.0054c0,0.0957,0.0479,0.2031,0.0479,0.3105
		c0.0234,1.4297,0.2144,2.8125,0.6196,4.1592c0,0,0,0.0117,0,0.0244c0.4175,1.3584,1.0249,2.6211,1.7876,3.8369
		c0.0713,0.1074,0.1431,0.2266,0.2148,0.334c0.751,1.1318,1.6445,2.1689,2.6934,3.0752c0.1309,0.1064,0.2739,0.2021,0.4053,0.3096
		c1.0723,0.8818,2.2402,1.6562,3.5752,2.2519l238.872,104.9141c1.001,0.4414,2.0381,0.7744,3.0865,1.001
		c1.061,0.2148,2.1215,0.3223,3.1938,0.3223l0,0l0,0H623.751c45.5264-0.0478,82.5439-37.0654,82.5908-82.6035v-88.2646
		l-31.248,43.2744V682.4468z"/>
</g>
</svg>
